<svg width="117" height="63" viewBox="0 0 117 63" fill="none" xmlns="http://www.w3.org/2000/svg">
<path d="M37.8223 42.8281C37.7051 44.3125 37.5 45.7383 37.207 47.1055C37.6758 47.2617 38.125 47.4082 38.5547 47.5449C38.9844 47.6816 39.3945 47.8281 39.7852 47.9844C40.1562 48.1406 40.3418 48.3457 40.3418 48.5996C40.3418 48.7363 40.2832 48.8535 40.166 48.9512C40.0684 49.0488 39.9219 49.0977 39.7266 49.0977C39.6289 49.0977 39.3164 49.0488 38.7891 48.9512C38.2812 48.8535 37.627 48.7461 36.8262 48.6289C36.2988 50.4648 35.5859 52.0957 34.6875 53.5215C33.8086 54.9668 32.7734 56.2168 31.582 57.2715C30.4102 58.3457 29.082 59.2441 27.5977 59.9668C26.1328 60.709 24.5508 61.2949 22.8516 61.7246C21.7578 61.998 20.7031 62.1348 19.6875 62.1348C18.6328 62.1348 17.6562 61.9199 16.7578 61.4902C15.8594 61.0801 15.0781 60.5234 14.4141 59.8203C13.7695 59.1172 13.2617 58.3164 12.8906 57.418C12.5195 56.5195 12.334 55.582 12.334 54.6055C12.334 53.4336 12.6465 52.2812 13.2715 51.1484C13.8965 50.0156 14.9414 49.0195 16.4062 48.1602C18.1641 47.125 19.9805 46.4219 21.8555 46.0508C23.7305 45.6797 25.5176 45.4941 27.2168 45.4941C29.0332 45.4941 30.752 45.6406 32.373 45.9336C32.4707 45.4258 32.5586 44.9082 32.6367 44.3809C32.7344 43.8535 32.8027 43.3066 32.8418 42.7402C32.8809 42.1738 32.9395 41.5195 33.0176 40.7773C33.0762 40.1523 33.1445 39.3809 33.2227 38.4629C33.3008 37.5449 33.3984 36.5 33.5156 35.3281C32.9102 36.832 32.1973 38.1113 31.377 39.166C30.5566 40.2012 29.6875 41.0508 28.7695 41.7148C27.8711 42.3594 26.9434 42.8281 25.9863 43.1211C25.0488 43.4141 24.1602 43.5605 23.3203 43.5605C21.9922 43.5605 20.7324 43.2773 19.541 42.7109C18.3496 42.125 17.2949 41.2656 16.377 40.1328C15.4785 39 14.7656 37.5938 14.2383 35.9141C13.7109 34.2344 13.4473 32.3008 13.4473 30.1133C13.4473 28.8438 13.5547 27.4082 13.7695 25.8066C14.0039 24.2051 14.2578 22.584 14.5312 20.9434C14.8047 19.3027 15.0488 17.7207 15.2637 16.1973C15.498 14.6543 15.6152 13.3066 15.6152 12.1543C15.6152 10.9238 15.5078 9.87891 15.293 9.01953C15.0781 8.16016 14.7852 7.45703 14.4141 6.91016C14.043 6.34375 13.6035 5.93359 13.0957 5.67969C12.5879 5.42578 12.0312 5.29883 11.4258 5.29883C10.7617 5.29883 10.0977 5.47461 9.43359 5.82617C8.76953 6.1582 8.16406 6.68555 7.61719 7.4082C7.08984 8.11133 6.66016 9.00977 6.32812 10.1035C5.99609 11.1973 5.83008 12.4961 5.83008 14C5.84961 15.3867 6.02539 16.6172 6.35742 17.6914C6.70898 18.7461 7.09961 19.6445 7.5293 20.3867C7.97852 21.1289 8.39844 21.7148 8.78906 22.1445C9.19922 22.5547 9.47266 22.8184 9.60938 22.9355C9.84375 23.1309 9.96094 23.3066 9.96094 23.4629C9.96094 23.6191 9.90234 23.7363 9.78516 23.8145C9.66797 23.873 9.45312 23.9023 9.14062 23.9023C8.96484 23.9023 8.64258 23.8633 8.17383 23.7852C7.70508 23.6875 7.1582 23.5215 6.5332 23.2871C5.92773 23.0527 5.29297 22.7207 4.62891 22.291C3.96484 21.8418 3.34961 21.2656 2.7832 20.5625C2.23633 19.8594 1.77734 19.0098 1.40625 18.0137C1.05469 17.0176 0.878906 15.8262 0.878906 14.4395C0.878906 12.8574 1.19141 11.334 1.81641 9.86914C2.44141 8.4043 3.27148 7.11523 4.30664 6.00195C5.36133 4.88867 6.57227 4 7.93945 3.33594C9.30664 2.67187 10.7422 2.33984 12.2461 2.33984C13.3789 2.33984 14.4531 2.53516 15.4688 2.92578C16.5039 3.29688 17.4023 3.88281 18.1641 4.68359C18.9453 5.46484 19.5605 6.46094 20.0098 7.67188C20.4785 8.86328 20.7129 10.2793 20.7129 11.9199C20.7129 13.3262 20.6152 14.7715 20.4199 16.2559C20.2441 17.7207 20.0391 19.2344 19.8047 20.7969C19.5703 22.3398 19.3555 23.9219 19.1602 25.543C18.9844 27.1641 18.8965 28.8242 18.8965 30.5234C18.8965 32.1445 19.0137 33.5215 19.248 34.6543C19.502 35.7676 19.8535 36.6758 20.3027 37.3789C20.7715 38.0625 21.3379 38.5605 22.002 38.873C22.666 39.1855 23.4082 39.3418 24.2285 39.3418C25.2051 39.3418 26.1621 39.1953 27.0996 38.9023C28.0566 38.5898 28.9355 38.082 29.7363 37.3789C30.5371 36.6758 31.2402 35.7578 31.8457 34.625C32.4512 33.4922 32.9199 32.0957 33.252 30.4355C33.291 30.2598 33.3496 29.8008 33.4277 29.0586C33.5254 28.2969 33.6426 27.3594 33.7793 26.2461C33.916 25.1328 34.0625 23.8926 34.2188 22.5254C34.375 21.1582 34.5312 19.7715 34.6875 18.3652C34.8633 16.959 35.0391 15.5918 35.2148 14.2637C35.3906 12.916 35.5469 11.7148 35.6836 10.6602C35.8398 9.58594 35.9766 8.7168 36.0938 8.05273C36.2109 7.36914 36.2988 6.98828 36.3574 6.91016C36.4355 6.83203 36.5625 6.75391 36.7383 6.67578C36.875 6.61719 37.0605 6.56836 37.2949 6.5293C37.5293 6.4707 37.8223 6.44141 38.1738 6.44141C38.252 6.44141 38.3301 6.45117 38.4082 6.4707C38.4863 6.4707 38.5742 6.4707 38.6719 6.4707C38.7695 6.4707 38.8672 6.39258 38.9648 6.23633C39.082 6.06055 39.2188 5.875 39.375 5.67969C39.5312 5.46484 39.7266 5.2793 39.9609 5.12305C40.1953 4.94727 40.4883 4.85938 40.8398 4.85938C41.2305 4.85938 41.4258 5.08398 41.4258 5.5332L41.3965 5.91406C41.3574 6.14844 41.2793 6.68555 41.1621 7.52539C41.0645 8.36523 40.9473 9.42969 40.8105 10.7188C40.6738 11.9883 40.5176 13.4531 40.3418 15.1133C40.166 16.7734 39.9805 18.5312 39.7852 20.3867C39.6094 22.2422 39.4238 24.166 39.2285 26.1582C39.0527 28.1309 38.877 30.0938 38.7012 32.0469C38.5254 34 38.3594 35.8945 38.2031 37.7305C38.0664 39.5664 37.9395 41.2656 37.8223 42.8281ZM18.7793 58.6777C19.7949 58.6777 20.918 58.4922 22.1484 58.1211C23.3789 57.75 24.5996 57.1445 25.8105 56.3047C27.0215 55.4844 28.1543 54.4004 29.209 53.0527C30.2637 51.7246 31.1133 50.0938 31.7578 48.1602C31.5234 48.1406 31.2793 48.1309 31.0254 48.1309C30.791 48.1309 30.5566 48.1309 30.3223 48.1309C29.502 48.1309 28.6426 48.1602 27.7441 48.2188C26.8457 48.2969 25.9277 48.4434 24.9902 48.6582C23.7598 48.9316 22.5586 49.3516 21.3867 49.918C20.2148 50.5039 19.1699 51.1582 18.252 51.8809C17.3535 52.6035 16.6309 53.3555 16.084 54.1367C15.5371 54.9375 15.2637 55.6797 15.2637 56.3633C15.2637 57.0469 15.5469 57.6035 16.1133 58.0332C16.6797 58.4629 17.5684 58.6777 18.7793 58.6777ZM71.1621 39.6934C71.1621 40.377 71.2305 40.9531 71.3672 41.4219C71.5039 41.8711 71.6797 42.2422 71.8945 42.5352C72.1289 42.8086 72.3828 43.0137 72.6562 43.1504C72.9297 43.2676 73.2129 43.3262 73.5059 43.3262C73.7988 43.3262 74.082 43.2676 74.3555 43.1504C74.6289 43.0137 74.873 42.877 75.0879 42.7402C75.3223 42.584 75.5273 42.4473 75.7031 42.3301C75.8984 42.1934 76.0645 42.125 76.2012 42.125C76.4551 42.125 76.582 42.2715 76.582 42.5645C76.582 42.6621 76.5332 42.7891 76.4355 42.9453C76.3574 43.082 76.2793 43.1992 76.2012 43.2969C75.8691 43.7461 75.5078 44.1758 75.1172 44.5859C74.7461 45.0156 74.3359 45.3867 73.8867 45.6992C73.457 46.0312 72.998 46.2949 72.5098 46.4902C72.041 46.6855 71.5527 46.7832 71.0449 46.7832C70.127 46.7832 69.3652 46.5684 68.7598 46.1387C68.1738 45.709 67.7051 45.1621 67.3535 44.498C67.002 43.8535 66.748 43.1406 66.5918 42.3594C66.4355 41.5781 66.3477 40.8262 66.3281 40.1035C65.8398 41.0996 65.3223 41.959 64.7754 42.6816C64.2285 43.4043 63.6816 44.0293 63.1348 44.5566C62.1973 45.4551 61.1719 46.1875 60.0586 46.7539C58.9648 47.3398 57.7148 47.6328 56.3086 47.6328C54.7656 47.6328 53.3398 47.2715 52.0312 46.5488C50.7227 45.8457 49.5898 44.791 48.6328 43.3848C47.6758 41.959 46.9238 40.1816 46.377 38.0527C45.8496 35.9238 45.5859 33.4434 45.5859 30.6113C45.5859 28.3652 45.7715 26.2559 46.1426 24.2832C46.5137 22.291 47.002 20.4453 47.6074 18.7461C48.2129 17.0273 48.9062 15.4648 49.6875 14.0586C50.4883 12.6328 51.3086 11.3535 52.1484 10.2207C53.0078 9.06836 53.8574 8.08203 54.6973 7.26172C55.5371 6.42187 56.3086 5.72852 57.0117 5.18164C57.5195 4.79102 58.0859 4.41016 58.7109 4.03906C59.3359 3.66797 60 3.33594 60.7031 3.04297C61.4258 2.75 62.1777 2.51562 62.959 2.33984C63.7598 2.16406 64.5898 2.07617 65.4492 2.07617C66.4648 2.07617 67.5391 2.25195 68.6719 2.60352C69.8047 2.95508 70.8496 3.50195 71.8066 4.24414C72.7637 4.9668 73.5547 5.9043 74.1797 7.05664C74.8242 8.20898 75.1465 9.57617 75.1465 11.1582C75.1465 12.0371 75.0098 12.9355 74.7363 13.8535C74.4824 14.7715 74.0527 15.6992 73.4473 16.6367C72.9199 17.457 72.3145 18.1406 71.6309 18.6875C70.9473 19.2148 70.2441 19.6445 69.5215 19.9766C68.8184 20.3086 68.1152 20.543 67.4121 20.6797C66.709 20.8164 66.084 20.8848 65.5371 20.8848C64.7363 20.8848 64.1406 20.7871 63.75 20.5918C63.3594 20.3965 63.1641 20.1816 63.1641 19.9473C63.1641 19.8301 63.2227 19.6934 63.3398 19.5371C63.4766 19.3809 63.6719 19.2539 63.9258 19.1562C64.2383 19.0195 64.7168 18.8535 65.3613 18.6582C66.0254 18.4434 66.6895 18.1016 67.3535 17.6328C68.0371 17.1641 68.6328 16.5098 69.1406 15.6699C69.6484 14.8105 69.9023 13.6777 69.9023 12.2715C69.9023 10.8066 69.7363 9.5957 69.4043 8.63867C69.0723 7.68164 68.6426 6.91992 68.1152 6.35352C67.5879 5.78711 66.9922 5.38672 66.3281 5.15234C65.6836 4.91797 65.0293 4.80078 64.3652 4.80078C63.3887 4.80078 62.4316 5.04492 61.4941 5.5332C60.5566 6.00195 59.6582 6.66602 58.7988 7.52539C57.959 8.36523 57.1582 9.37109 56.3965 10.543C55.6543 11.6953 54.9805 12.9453 54.375 14.293C53.7695 15.6211 53.2422 17.0273 52.793 18.5117C52.3438 19.9766 51.9922 21.4512 51.7383 22.9355C51.4844 24.4004 51.2988 25.7676 51.1816 27.0371C51.084 28.2871 51.0352 29.4688 51.0352 30.582C51.0352 32.8867 51.25 34.8398 51.6797 36.4414C52.1289 38.0234 52.7051 39.3125 53.4082 40.3086C54.1309 41.3047 54.9512 42.0273 55.8691 42.4766C56.7871 42.9258 57.7246 43.1504 58.6816 43.1504C59.4238 43.1504 60.1953 42.9941 60.9961 42.6816C61.7969 42.3691 62.5488 41.9395 63.252 41.3926C63.9746 40.8262 64.6094 40.1523 65.1562 39.3711C65.7031 38.5898 66.0938 37.7305 66.3281 36.793C66.3672 36.5586 66.4258 36.1094 66.5039 35.4453C66.582 34.7812 66.6602 34.0195 66.7383 33.1602C66.8164 32.3008 66.9043 31.4023 67.002 30.4648C67.0996 29.5078 67.1973 28.6289 67.2949 27.8281C67.3926 27.0078 67.4902 26.3145 67.5879 25.748C67.6855 25.1816 67.7832 24.8496 67.8809 24.752C67.959 24.6934 68.0762 24.625 68.2324 24.5469C68.3496 24.4883 68.5059 24.4395 68.7012 24.4004C68.916 24.3418 69.1797 24.3125 69.4922 24.3125C69.5508 24.3125 69.6191 24.3223 69.6973 24.3418C69.7754 24.3418 69.8535 24.3418 69.9316 24.3418C69.9707 24.3418 70.0195 24.3125 70.0781 24.2539C70.1367 24.1953 70.1855 24.127 70.2246 24.0488C70.2832 23.9707 70.3418 23.8633 70.4004 23.7266C70.459 23.6094 70.5469 23.4922 70.6641 23.375C70.8008 23.2578 70.9473 23.1504 71.1035 23.0527C71.2793 22.9355 71.4551 22.8477 71.6309 22.7891C71.8066 22.7109 71.9727 22.6719 72.1289 22.6719C72.2852 22.6719 72.4219 22.7305 72.5391 22.8477C72.6562 22.9453 72.7148 23.1211 72.7148 23.375C72.7148 23.5117 72.7051 23.6289 72.6855 23.7266C72.627 24.0391 72.5488 24.5566 72.4512 25.2793C72.3535 25.9824 72.2461 26.8125 72.1289 27.7695C72.0117 28.7266 71.8945 29.752 71.7773 30.8457C71.6602 31.9395 71.5527 33.0332 71.4551 34.127C71.377 35.2012 71.3086 36.2266 71.25 37.2031C71.1914 38.1602 71.1621 38.9902 71.1621 39.6934ZM103.242 38.668C103.242 36.6758 103.301 34.791 103.418 33.0137C103.535 31.2168 103.662 29.4785 103.799 27.7988C103.955 26.0996 104.092 24.4492 104.209 22.8477C104.346 21.2266 104.414 19.5957 104.414 17.9551C104.414 16.4902 104.326 15.1035 104.15 13.7949C103.975 12.4668 103.662 11.3047 103.213 10.3086C102.764 9.3125 102.139 8.52148 101.338 7.93555C100.537 7.33008 99.5215 7.02734 98.291 7.02734C97.1191 7.02734 96.0547 7.33008 95.0977 7.93555C94.1406 8.54102 93.2812 9.35156 92.5195 10.3672C91.7773 11.3828 91.123 12.5547 90.5566 13.8828C90.0098 15.2109 89.5508 16.5977 89.1797 18.043C88.8086 19.4883 88.5254 20.9434 88.3301 22.4082C88.1348 23.8535 88.0273 25.2109 88.0078 26.4805C87.9883 27.457 87.9688 28.3848 87.9492 29.2637C87.9297 30.1426 87.9004 30.9922 87.8613 31.8125C87.7832 35.6406 87.5879 38.6875 87.2754 40.9531C86.9629 43.2188 86.6895 44.8105 86.4551 45.7285C86.3184 46.2559 86.0938 46.6172 85.7812 46.8125C85.4883 47.0078 85.1562 47.125 84.7852 47.1641C84.4336 47.2031 84.0723 47.2129 83.7012 47.1934C83.3496 47.1934 83.0469 47.252 82.793 47.3691C82.4414 47.5254 82.0898 47.6035 81.7383 47.6035C81.4062 47.6035 81.123 47.5156 80.8887 47.3398C80.6543 47.1836 80.5371 46.9102 80.5371 46.5195C80.5371 46.3828 80.5469 46.2656 80.5664 46.168C80.625 45.9531 80.7129 45.4746 80.8301 44.7324C80.9668 44.0098 81.1133 43.1309 81.2695 42.0957C81.4453 41.041 81.6211 39.8789 81.7969 38.6094C81.9922 37.3398 82.1582 36.0605 82.2949 34.7715C82.4512 33.4629 82.5781 32.1934 82.6758 30.9629C82.7734 29.7324 82.8223 28.6191 82.8223 27.623C82.8223 27.0957 82.8125 26.3145 82.793 25.2793C82.793 24.2441 82.7832 23.0527 82.7637 21.7051C82.7441 20.3379 82.7051 18.873 82.6465 17.3105C82.6074 15.748 82.5391 14.1953 82.4414 12.6523C82.3438 11.0898 82.2266 9.58594 82.0898 8.14062C81.9531 6.67578 81.7871 5.36719 81.5918 4.21484C81.5527 4.01953 81.6602 3.81445 81.9141 3.59961C82.168 3.38477 82.4023 3.16992 82.6172 2.95508C82.7539 2.81836 82.8613 2.67187 82.9395 2.51562C83.0371 2.35938 83.1152 2.22266 83.1738 2.10547C83.2324 1.96875 83.291 1.86133 83.3496 1.7832C83.4277 1.68555 83.5156 1.61719 83.6133 1.57812C83.9648 1.46094 84.2188 1.38281 84.375 1.34375C84.5508 1.30469 84.6875 1.27539 84.7852 1.25586C84.8828 1.2168 84.9707 1.1875 85.0488 1.16797C85.127 1.12891 85.2539 1.07031 85.4297 0.992188C85.5859 0.914062 85.7324 0.845703 85.8691 0.787109C86.0059 0.728516 86.123 0.699219 86.2207 0.699219C86.7676 0.699219 87.041 1.25586 87.041 2.36914C87.0801 3.22852 87.1387 4.19531 87.2168 5.26953C87.2754 6.20703 87.334 7.33008 87.3926 8.63867C87.4707 9.92773 87.5391 11.4023 87.5977 13.0625C88.3008 11.2656 89.082 9.75195 89.9414 8.52148C90.8203 7.27148 91.709 6.24609 92.6074 5.44531C93.5254 4.64453 94.4141 4.0293 95.2734 3.59961C96.1523 3.16992 96.9238 2.85742 97.5879 2.66211C98.2715 2.44727 98.8184 2.33008 99.2285 2.31055C99.6387 2.27148 99.8535 2.25195 99.873 2.25195C101.318 2.25195 102.578 2.45703 103.652 2.86719C104.727 3.25781 105.645 3.80469 106.406 4.50781C107.188 5.19141 107.822 6.00195 108.311 6.93945C108.818 7.87695 109.209 8.88281 109.482 9.95703C109.775 11.0313 109.98 12.1543 110.098 13.3262C110.215 14.498 110.273 15.6602 110.273 16.8125C110.273 17.9648 110.234 19.0781 110.156 20.1523C110.078 21.207 109.99 22.1934 109.893 23.1113C109.756 24.4004 109.629 25.6309 109.512 26.8027C109.395 27.9746 109.287 29.127 109.189 30.2598C109.111 31.3926 109.043 32.5254 108.984 33.6582C108.926 34.7715 108.896 35.9238 108.896 37.1152C108.896 39.6348 109.014 41.9102 109.248 43.9414C109.482 45.9531 109.873 47.7793 110.42 49.4199C110.967 51.0605 111.689 52.5254 112.588 53.8145C113.506 55.123 114.639 56.3047 115.986 57.3594C116.201 57.5352 116.367 57.6719 116.484 57.7695C116.602 57.8867 116.66 58.0234 116.66 58.1797C116.66 58.4336 116.484 58.5605 116.133 58.5605C115.938 58.5605 115.723 58.5215 115.488 58.4434C114.141 57.9355 112.744 57.1836 111.299 56.1875C109.854 55.2109 108.535 53.9316 107.344 52.3496C106.152 50.7676 105.166 48.8535 104.385 46.6074C103.623 44.3613 103.242 41.7148 103.242 38.668Z" fill="#FF9900"/>
</svg>
